<?xml version="1.0" encoding="utf-8"?>
<!-- Generator: Adobe Illustrator 21.1.0, SVG Export Plug-In . SVG Version: 6.00 Build 0)  -->
<svg version="1.1" id="Layer_1" xmlns="http://www.w3.org/2000/svg" xmlns:xlink="http://www.w3.org/1999/xlink" x="0px" y="0px"
	 viewBox="0 0 302.3 63.8" style="enable-background:new 0 0 302.3 63.8;" xml:space="preserve">
<style type="text/css">
	.st0{fill:none;stroke:#3E3E3E;stroke-width:4.6999;stroke-miterlimit:10;}
	.st1{fill:#16B89A;}
	.st2{fill:#3E3E3E;}
	.st3{fill:#28B1E8;}
</style>
<g>
	<circle class="st0" cx="16.2" cy="47.6" r="13.9"/>
	<g>
		<path class="st1" d="M213,21.7c-2.4,0-4.7-0.8-6.6-2.2c-2.3-1.8-3.8-4.3-4.2-7.2s0.4-5.7,2.1-8c2.1-2.7,5.2-4.3,8.7-4.3
			c2.4,0,4.7,0.8,6.6,2.2c2.3,1.8,3.8,4.3,4.2,7.2s-0.4,5.7-2.1,8C219.6,20.2,216.4,21.7,213,21.7z M213,4.1c-2.1,0-4.1,1-5.4,2.7
			c-1.1,1.4-1.6,3.2-1.3,5c0.2,1.8,1.2,3.4,2.6,4.5c1.2,0.9,2.6,1.4,4.1,1.4c2.1,0,4.1-1,5.4-2.7c2.3-3,1.7-7.2-1.3-9.5
			C215.9,4.6,214.5,4.1,213,4.1z"/>
	</g>
	<g>
		<path class="st1" d="M187,63.4c-4.2,0-8.2-1.7-11.2-4.7c-6.2-6.2-6.2-16.3,0-22.5c3-3,7-4.7,11.2-4.7s8.2,1.7,11.2,4.7
			c6.2,6.2,6.2,16.3,0,22.5C195.3,61.7,191.3,63.4,187,63.4z M187,35.7c-3.2,0-6.1,1.2-8.4,3.5c-4.6,4.6-4.6,12.1,0,16.7
			c2.2,2.2,5.2,3.5,8.4,3.5s6.1-1.2,8.4-3.5c4.6-4.6,4.6-12.1,0-16.7C193.1,36.9,190.2,35.7,187,35.7z"/>
	</g>
	<g>
		<path class="st2" d="M250.4,32c0-0.5,0.4-0.9,0.9-0.9h3c0.5,0,0.9,0.4,0.9,0.9v27.1h12.5c0.5,0,0.9,0.4,0.9,0.9v2.5
			c0,0.5-0.4,0.9-0.9,0.9h-16.4c-0.5,0-0.9-0.4-0.9-0.9V32z"/>
		<path class="st2" d="M286.5,47.8l-10.8-15.4c-0.4-0.6,0-1.3,0.7-1.3h3.4c0.4,0,0.6,0.2,0.7,0.4l8.3,11.7l8.3-11.7
			c0.1-0.2,0.4-0.4,0.7-0.4h3.5c0.7,0,1.1,0.7,0.7,1.3l-10.9,15.3v14.7c0,0.5-0.4,0.9-0.9,0.9h-3c-0.5,0-0.9-0.4-0.9-0.9V47.8H286.5
			z"/>
	</g>
	<path class="st2" d="M44,32.1c0-0.5,0.4-0.9,0.9-0.9h18.4c0.5,0,0.9,0.4,0.9,0.9v2.6c0,0.5-0.4,0.9-0.9,0.9H48.8v10.6H61
		c0.5,0,0.9,0.4,0.9,0.9v2.5c0,0.5-0.4,0.9-0.9,0.9H48.8v12.1c0,0.5-0.4,0.9-0.9,0.9h-3c-0.5,0-0.9-0.4-0.9-0.9
		C44,62.6,44,32.1,44,32.1z"/>
	<path class="st2" d="M74.6,32.1c0-0.5,0.4-0.9,0.9-0.9h18.4c0.5,0,0.9,0.4,0.9,0.9v2.6c0,0.5-0.4,0.9-0.9,0.9H79.4v10.6h12.3
		c0.5,0,0.9,0.4,0.9,0.9v2.5c0,0.5-0.4,0.9-0.9,0.9H79.4v12.1c0,0.5-0.4,0.9-0.9,0.9h-3c-0.5,0-0.9-0.4-0.9-0.9V32.1z"/>
	<path class="st2" d="M103.1,58.7c0.4-0.6,0.8-1.3,1.2-1.9c0.4-0.6,1.1-0.8,1.6-0.4c0.3,0.2,3.8,3.2,7.3,3.2c3.2,0,5.2-1.9,5.2-4.3
		c0-2.8-2.4-4.5-6.9-6.4c-4.7-2-8.4-4.4-8.4-9.7c0-3.6,2.8-8.5,10.1-8.5c4.6,0,8,2.4,8.5,2.7c0.4,0.2,0.7,0.9,0.3,1.6
		c-0.4,0.6-0.8,1.2-1.1,1.7c-0.4,0.6-1,0.9-1.6,0.5c-0.3-0.2-3.5-2.3-6.2-2.3c-3.9,0-5.2,2.4-5.2,4.1c0,2.6,2,4.2,5.8,5.8
		c5.3,2.2,9.9,4.7,9.9,10.3c0,4.8-4.3,8.7-10.2,8.7c-5.6,0-9.1-2.9-9.9-3.6C103,59.8,102.7,59.5,103.1,58.7z"/>
	<path class="st2" d="M134.5,32.1c0-0.5,0.4-0.9,0.9-0.9h3c0.5,0,0.9,0.4,0.9,0.9v12.8h16.8V32.1c0-0.5,0.4-0.9,0.9-0.9h3
		c0.5,0,0.9,0.4,0.9,0.9v30.4c0,0.5-0.4,0.9-0.9,0.9h-3c-0.5,0-0.9-0.4-0.9-0.9V49.2h-16.8v13.3c0,0.5-0.4,0.9-0.9,0.9h-3
		c-0.5,0-0.9-0.4-0.9-0.9V32.1z"/>
	<path class="st2" d="M215.2,32.1c0-0.5,0.4-0.9,0.9-0.9h12.5c5.5,0,10,4.4,10,9.8c0,4.2-2.8,7.7-6.8,9.3l6.3,11.7
		c0.3,0.6,0,1.3-0.8,1.3h-3.6c-0.4,0-0.6-0.2-0.7-0.4l-6.1-12.2H220v11.7c0,0.5-0.4,0.9-0.9,0.9h-3c-0.5,0-0.9-0.4-0.9-0.9
		L215.2,32.1L215.2,32.1z M228.2,46.8c3,0,5.6-2.5,5.6-5.7c0-3-2.6-5.5-5.6-5.5H220v11.2H228.2z"/>
	<path class="st3" d="M16.3,63.8"/>
	<circle class="st1" cx="197.6" cy="31.2" r="1.5"/>
	<circle class="st1" cx="201" cy="26.7" r="1.5"/>
	<circle class="st1" cx="204.3" cy="22.3" r="1.5"/>
</g>
</svg>
