<?xml version="1.0" encoding="utf-8"?>
<!-- Generator: Adobe Illustrator 21.1.0, SVG Export Plug-In . SVG Version: 6.00 Build 0)  -->
<svg version="1.1" id="Layer_1" xmlns="http://www.w3.org/2000/svg" xmlns:xlink="http://www.w3.org/1999/xlink" x="0px" y="0px"
	 width="531.125px" height="68.704px" viewBox="0 0 531.125 68.704" enable-background="new 0 0 531.125 68.704"
	 xml:space="preserve">
<path fill="#4D4D4D" d="M0.049,35.772c-0.192-0.672,0.192-1.151,0.864-1.151H5.33c0.384,0,0.768,0.336,0.864,0.672l4.993,19.153
	h0.192l7.632-19.777c0.096-0.288,0.336-0.528,0.816-0.528h0.864c0.48,0,0.72,0.24,0.816,0.528l7.681,19.777h0.192l4.896-19.153
	c0.096-0.336,0.48-0.672,0.864-0.672h4.416c0.672,0,1.056,0.479,0.864,1.151l-9.073,32.259c-0.096,0.385-0.48,0.673-0.864,0.673
	h-0.768c-0.432,0-0.72-0.24-0.816-0.528l-8.593-21.746h-0.24L11.57,68.175c-0.144,0.288-0.336,0.528-0.816,0.528H9.986
	c-0.384,0-0.768-0.288-0.864-0.673L0.049,35.772z"/>
<path fill="#4D4D4D" d="M50.833,35.533c0-0.48,0.384-0.912,0.912-0.912h19.538c0.528,0,0.912,0.432,0.912,0.912v3.936
	c0,0.48-0.384,0.912-0.912,0.912H57.074v7.873h11.857c0.48,0,0.912,0.432,0.912,0.912v3.984c0,0.528-0.432,0.912-0.912,0.912H57.074
	v8.4h14.209c0.528,0,0.912,0.433,0.912,0.912v3.937c0,0.48-0.384,0.912-0.912,0.912H51.745c-0.528,0-0.912-0.432-0.912-0.912V35.533
	z"/>
<path fill="#4D4D4D" d="M94.897,66.975l14.929-32.307c0.144-0.288,0.384-0.528,0.816-0.528h0.48c0.48,0,0.672,0.24,0.816,0.528
	l14.785,32.307c0.288,0.624-0.096,1.248-0.816,1.248h-4.176c-0.72,0-1.056-0.288-1.392-0.96l-2.353-5.185h-14.353l-2.352,5.185
	c-0.192,0.479-0.624,0.96-1.393,0.96h-4.176C94.993,68.223,94.608,67.599,94.897,66.975z M115.634,56.751l-4.8-10.562h-0.144
	l-4.705,10.562H115.634z"/>
<path fill="#4D4D4D" d="M135.889,35.533c0-0.48,0.384-0.912,0.912-0.912h13.729c5.76,0,10.465,4.608,10.465,10.32
	c0,4.417-2.928,8.017-7.104,9.697l6.576,12.192c0.336,0.625,0,1.393-0.816,1.393h-5.041c-0.432,0-0.672-0.24-0.768-0.432
	l-6.384-12.722h-5.329v12.241c0,0.48-0.432,0.912-0.912,0.912h-4.417c-0.528,0-0.912-0.432-0.912-0.912V35.533z M150.002,49.933
	c2.544,0,4.752-2.208,4.752-4.896c0-2.545-2.208-4.657-4.752-4.657h-7.825v9.553H150.002z"/>
<path fill="#4D4D4D" d="M172.656,35.533c0-0.48,0.384-0.912,0.912-0.912h19.538c0.528,0,0.912,0.432,0.912,0.912v3.936
	c0,0.48-0.384,0.912-0.912,0.912h-14.209v7.873h11.857c0.48,0,0.912,0.432,0.912,0.912v3.984c0,0.528-0.432,0.912-0.912,0.912
	h-11.857v8.4h14.209c0.528,0,0.912,0.433,0.912,0.912v3.937c0,0.48-0.384,0.912-0.912,0.912h-19.538
	c-0.528,0-0.912-0.432-0.912-0.912V35.533z"/>
<path fill="#4D4D4D" d="M235.921,34.14c9.601,0,17.281,7.729,17.281,17.329c0,9.602-7.681,17.234-17.281,17.234
	s-17.233-7.633-17.233-17.234C218.688,41.869,226.32,34.14,235.921,34.14z M235.921,62.462c6.048,0,11.041-4.944,11.041-10.993
	c0-6.048-4.993-11.089-11.041-11.089s-10.993,5.041-10.993,11.089C224.928,57.518,229.873,62.462,235.921,62.462z"/>
<path fill="#4D4D4D" d="M264.287,35.533c0-0.48,0.384-0.912,0.912-0.912h19.538c0.528,0,0.912,0.432,0.912,0.912v3.936
	c0,0.48-0.384,0.912-0.912,0.912h-14.209v9.025h11.857c0.48,0,0.912,0.432,0.912,0.912v3.937c0,0.479-0.432,0.912-0.912,0.912
	h-11.857v12.145c0,0.48-0.432,0.912-0.912,0.912h-4.417c-0.528,0-0.912-0.432-0.912-0.912V35.533z"/>
<path fill="#4D4D4D" d="M296.159,35.533c0-0.48,0.384-0.912,0.912-0.912h19.538c0.528,0,0.912,0.432,0.912,0.912v3.936
	c0,0.48-0.384,0.912-0.912,0.912H302.4v9.025h11.857c0.48,0,0.912,0.432,0.912,0.912v3.937c0,0.479-0.432,0.912-0.912,0.912H302.4
	v12.145c0,0.48-0.432,0.912-0.912,0.912h-4.417c-0.528,0-0.912-0.432-0.912-0.912V35.533z"/>
<path fill="#4D4D4D" d="M326.063,63.519l1.728-2.977c0.384-0.672,1.2-0.672,1.632-0.336c0.24,0.144,4.128,2.977,7.249,2.977
	c2.496,0,4.368-1.633,4.368-3.696c0-2.448-2.064-4.129-6.097-5.761c-4.512-1.824-9.024-4.704-9.024-10.369
	c0-4.272,3.168-9.217,10.801-9.217c4.896,0,8.641,2.496,9.601,3.217c0.48,0.287,0.624,1.104,0.288,1.584l-1.824,2.736
	c-0.384,0.575-1.104,0.96-1.68,0.575c-0.384-0.239-4.033-2.64-6.673-2.64c-2.736,0-4.224,1.824-4.224,3.36
	c0,2.256,1.776,3.792,5.664,5.376c4.657,1.872,10.033,4.656,10.033,10.85c0,4.944-4.272,9.505-11.041,9.505
	c-6.048,0-9.601-2.833-10.561-3.745C325.87,64.527,325.63,64.287,326.063,63.519z"/>
<path fill="#4D4D4D" d="M358.846,35.533c0-0.48,0.432-0.912,0.912-0.912h4.464c0.528,0,0.912,0.432,0.912,0.912v12.721h15.649
	V35.533c0-0.48,0.384-0.912,0.912-0.912h4.417c0.48,0,0.912,0.432,0.912,0.912v31.778c0,0.48-0.432,0.912-0.912,0.912h-4.417
	c-0.528,0-0.912-0.432-0.912-0.912V54.062h-15.649v13.249c0,0.48-0.384,0.912-0.912,0.912h-4.464c-0.48,0-0.912-0.432-0.912-0.912
	V35.533z"/>
<path fill="#4D4D4D" d="M443.757,35.533c0-0.48,0.384-0.912,0.912-0.912h13.729c5.76,0,10.465,4.608,10.465,10.32
	c0,4.417-2.928,8.017-7.104,9.697l6.576,12.192c0.336,0.625,0,1.393-0.816,1.393h-5.041c-0.432,0-0.672-0.24-0.768-0.432
	l-6.384-12.722h-5.329v12.241c0,0.48-0.432,0.912-0.912,0.912h-4.417c-0.528,0-0.912-0.432-0.912-0.912V35.533z M457.871,49.933
	c2.544,0,4.752-2.208,4.752-4.896c0-2.545-2.208-4.657-4.752-4.657h-7.825v9.553H457.871z"/>
<path fill="#4D4D4D" d="M480.525,35.533c0-0.48,0.384-0.912,0.912-0.912h4.417c0.48,0,0.912,0.432,0.912,0.912v26.93h12.241
	c0.528,0,0.912,0.433,0.912,0.912v3.937c0,0.48-0.384,0.912-0.912,0.912h-17.57c-0.528,0-0.912-0.432-0.912-0.912V35.533z"/>
<path fill="#4D4D4D" d="M513.645,52.045L502.7,36.012c-0.384-0.624,0-1.392,0.768-1.392h4.896c0.384,0,0.624,0.239,0.768,0.432
	l7.681,11.041l7.681-11.041c0.144-0.192,0.384-0.432,0.768-0.432h4.944c0.768,0,1.152,0.768,0.768,1.392l-11.089,15.985v15.313
	c0,0.48-0.432,0.912-0.912,0.912h-4.417c-0.528,0-0.912-0.432-0.912-0.912V52.045z"/>
<g>
	<g>
		<path fill="#00B295" d="M443.212,23.465c-2.58,0-5.033-0.827-7.092-2.393c-2.494-1.895-4.1-4.65-4.525-7.753
			c-0.424-3.105,0.388-6.189,2.285-8.685C436.116,1.691,439.523,0,443.227,0c2.58,0,5.033,0.827,7.092,2.393
			c2.494,1.895,4.1,4.65,4.525,7.755c0.422,3.103-0.388,6.187-2.285,8.683C450.321,21.775,446.914,23.465,443.212,23.465z
			 M443.227,4.41c-2.313,0-4.438,1.055-5.836,2.892c-1.184,1.559-1.691,3.482-1.426,5.42c0.265,1.936,1.268,3.655,2.825,4.839
			c1.284,0.976,2.813,1.492,4.421,1.492c2.311,0,4.438-1.055,5.836-2.894c2.442-3.213,1.815-7.815-1.4-10.257
			C446.365,4.927,444.836,4.41,443.227,4.41z"/>
	</g>
	<g>
		<path fill="#00B295" d="M415.186,68.403c-4.583,0-8.892-1.785-12.133-5.026c-6.691-6.691-6.691-17.577,0-24.268
			c3.241-3.241,7.55-5.026,12.133-5.026c4.585,0,8.894,1.785,12.133,5.026c6.691,6.691,6.691,17.577,0,24.268
			C424.08,66.618,419.77,68.403,415.186,68.403z M415.186,38.493c-3.405,0-6.607,1.327-9.015,3.734c-4.97,4.97-4.97,13.061,0,18.032
			c2.408,2.408,5.61,3.734,9.015,3.734c3.407,0,6.607-1.327,9.015-3.734c4.97-4.97,4.97-13.061,0-18.032
			C421.793,39.819,418.592,38.493,415.186,38.493z"/>
	</g>
	
		<ellipse transform="matrix(0.605 -0.7962 0.7962 0.605 141.7192 352.9273)" fill="#00B295" cx="426.587" cy="33.62" rx="1.639" ry="1.639"/>
	
		<ellipse transform="matrix(0.605 -0.7962 0.7962 0.605 146.9783 353.935)" fill="#00B295" cx="430.232" cy="28.823" rx="1.639" ry="1.639"/>
	
		<ellipse transform="matrix(0.605 -0.7962 0.7962 0.605 152.2375 354.9427)" fill="#00B295" cx="433.877" cy="24.026" rx="1.639" ry="1.639"/>
</g>
</svg>
